<mxfile host="app.diagrams.net" modified="2022-10-25T12:45:35.792Z" agent="5.0 (Macintosh; Intel Mac OS X 10_15_7) AppleWebKit/537.36 (KHTML, like Gecko) Chrome/106.0.0.0 Safari/537.36" etag="eCE8prSlW2mHu5ymyHxt" version="20.2.2" type="github">
  <diagram id="S6Es-kQb0I0hB4wbNMsK" name="第 1 页">
    <mxGraphModel dx="786" dy="625" grid="1" gridSize="10" guides="1" tooltips="1" connect="1" arrows="1" fold="1" page="1" pageScale="1" pageWidth="827" pageHeight="1169" math="0" shadow="0">
      <root>
        <mxCell id="0" />
        <mxCell id="1" parent="0" />
        <mxCell id="4JxSbWImmoZFP9Ur36Un-2" value="init" style="rounded=1;whiteSpace=wrap;html=1;" vertex="1" parent="1">
          <mxGeometry x="280" y="60" width="70" height="30" as="geometry" />
        </mxCell>
        <mxCell id="4JxSbWImmoZFP9Ur36Un-4" value="initAndBind" style="rounded=1;whiteSpace=wrap;html=1;" vertex="1" parent="1">
          <mxGeometry x="190" y="120" width="90" height="30" as="geometry" />
        </mxCell>
        <mxCell id="4JxSbWImmoZFP9Ur36Un-5" value="startSessionTracking" style="rounded=1;whiteSpace=wrap;html=1;" vertex="1" parent="1">
          <mxGeometry x="350" y="120" width="140" height="30" as="geometry" />
        </mxCell>
      </root>
    </mxGraphModel>
  </diagram>
</mxfile>
